# xmcd CD database file
# Copyright (C) 1993-1998 Ti Kan
#
# Track frame offsets:
#	150
#	21060
#	37895
#	56545
#	76887
#	88565
#	102782
#	120480
#	135480
#	148907
#	167730
#	182840
#	195752
#	210172
#
# Disc length: 3097 seconds
#
# Revision: 1
# Processed by: cddbd v1.4b41PL1 Copyright (c) Steve Scherf et al.
# Submitted via: CDValet v3.01 - Copyright (c) 1997 Greg Leichner
#
DISCID=a70c170e
DTITLE=Doce Delirio - Doce Delirio
DYEAR=1900
DGENRE=
TTITLE0=Fico Louco
TTITLE1=Triste Solidão
TTITLE2=Preciso Te Querer Menos
TTITLE3=Bem, Bem, Bem
TTITLE4=Pagode Do Alemão
TTITLE5=A Estrada
TTITLE6=A Lua E
TTITLE7=Deusa De Verão
TTITLE8=Canto De Amor
TTITLE9=Tanto Te Quiero
TTITLE10=Amor Por Uma Noite
TTITLE11=Timbalada Com Amor
TTITLE12=Hey Mister
TTITLE13=Levanta A Poeira
EXTD=
EXTT0=
EXTT1=
EXTT2=
EXTT3=
EXTT4=
EXTT5=
EXTT6=
EXTT7=
EXTT8=
EXTT9=
EXTT10=
EXTT11=
EXTT12=
EXTT13=
PLAYORDER=
